<?xml version="1.0" encoding="UTF-8"?>
<svg version="1.1" xmlns="http://www.w3.org/2000/svg" width="2250" height="2250">
<path d="M0 0 C1.63450607 0.00081573 1.63450607 0.00081573 3.30203247 0.00164795 C55.51274561 0.1208124 107.64863942 11.74761008 153.94677734 36.38916016 C155.93930669 37.44200411 157.94651736 38.46242227 159.95703125 39.48046875 C170.35591377 44.79445084 180.15796892 50.81134214 189.8125 57.375 C190.4219043 57.78862793 191.03130859 58.20225586 191.65917969 58.62841797 C204.92182856 67.70305444 217.35371648 77.86267418 229.0859375 88.8359375 C231.61895483 91.19476453 234.20535885 93.4739244 236.8125 95.75 C261.21947868 117.69675523 280.57605783 145.71357156 296.56347656 174.15576172 C297.3357039 175.52783884 298.11273661 176.89723875 298.89746094 178.26220703 C317.00403627 209.76764811 327.6652514 245.60071925 334.0625 281.1875 C334.21372314 282.02055664 334.36494629 282.85361328 334.52075195 283.71191406 C337.50988073 301.39351376 338.18678532 319.03634692 338.125 336.9375 C338.12226578 338.58600952 338.12226578 338.58600952 338.11947632 340.26782227 C338.07330839 356.82090267 337.57261659 373.01895298 334.8125 389.375 C334.64089355 390.43364258 334.46928711 391.49228516 334.29248047 392.58300781 C329.29187404 422.78327431 319.91823452 451.34066744 307.8125 479.375 C323.6525 479.87 323.6525 479.87 339.8125 480.375 C339.8125 486.975 339.8125 493.575 339.8125 500.375 C325.2925 500.375 310.7725 500.375 295.8125 500.375 C295.1525 502.355 294.4925 504.335 293.8125 506.375 C292.64257813 508.578125 292.64257813 508.578125 291.34375 510.625 C290.86043213 511.39094482 290.37711426 512.15688965 289.87915039 512.94604492 C289.36215576 513.7476001 288.84516113 514.54915527 288.3125 515.375 C287.50510376 516.63630737 287.50510376 516.63630737 286.68139648 517.9230957 C276.30387749 534.01705763 264.73727969 549.12000513 251.7734375 563.23046875 C249.98957266 565.18134883 248.27297206 567.17248048 246.5625 569.1875 C239.00885893 577.85041703 230.66985075 586.05351984 221.8125 593.375 C221.01150879 594.04668213 221.01150879 594.04668213 220.19433594 594.73193359 C210.10959393 603.17541214 199.72437411 611.03154451 188.8125 618.375 C188.09819824 618.85791504 187.38389648 619.34083008 186.64794922 619.83837891 C140.16858484 650.97362747 85.48141788 669.61486653 29.8125 674.375 C28.80606445 674.46177002 28.80606445 674.46177002 27.77929688 674.55029297 C-28.99279818 679.18952576 -89.44590839 669.80932299 -140.80664062 644.54492188 C-143.37588336 643.28243098 -145.96076052 642.05565257 -148.546875 640.828125 C-172.59731924 629.26480163 -194.84559741 614.64473842 -215.1875 597.375 C-216.19039062 596.55644531 -217.19328125 595.73789063 -218.2265625 594.89453125 C-225.87117229 588.59186117 -232.97519306 581.7966013 -240 574.8125 C-240.87124512 573.95043945 -241.74249023 573.08837891 -242.64013672 572.20019531 C-248.57923097 566.23285732 -253.92783918 559.94244686 -259.1875 553.375 C-260.74700185 551.5599197 -262.30883812 549.74683674 -263.875 547.9375 C-309.68031407 492.84349221 -335.31822405 419.68787759 -337.1875 348.375 C-337.20941406 347.59866211 -337.23132813 346.82232422 -337.25390625 346.02246094 C-338.48711702 294.74144632 -327.87815245 245.1677063 -307.1875 198.375 C-318.4075 198.375 -329.6275 198.375 -341.1875 198.375 C-341.1875 191.775 -341.1875 185.175 -341.1875 178.375 C-338.16207031 178.55804687 -335.13664063 178.74109375 -332.01953125 178.9296875 C-312.34888937 180.60061123 -312.34888937 180.60061123 -294.00488281 175.42626953 C-289.45764942 170.4610701 -287.30328816 164.53674776 -285.22705078 158.21435547 C-283.66262718 153.94139952 -281.24561151 150.51561405 -278.5625 146.875 C-278.11382568 146.23643066 -277.66515137 145.59786133 -277.20288086 144.93994141 C-261.49003398 122.62430985 -242.98307033 101.07105725 -222.1875 83.375 C-221.28902344 82.58738281 -220.39054688 81.79976562 -219.46484375 80.98828125 C-172.92364723 40.47068551 -115.85348747 15.01822531 -55.375 4.125 C-54.54170166 3.97369629 -53.70840332 3.82239258 -52.84985352 3.66650391 C-35.30718598 0.70168757 -17.76197065 -0.03358837 0 0 Z M-16.26171875 31.84375 C-40.18394611 63.28716446 -47.54258625 108.78701635 -54.5 146.75 C-54.62337738 147.42043335 -54.74675476 148.0908667 -54.87387085 148.78161621 C-56.67063858 158.62566291 -57.94405183 168.4274146 -59.1875 178.375 C-19.5875 178.375 20.0125 178.375 60.8125 178.375 C56.99040707 152.22833628 56.99040707 152.22833628 51.9375 126.375 C51.68504517 125.23354523 51.68504517 125.23354523 51.42749023 124.06903076 C40.29667235 67.5695749 40.29667235 67.5695749 7.8125 22.375 C-2.28259867 16.81199765 -9.87755149 24.20754217 -16.26171875 31.84375 Z M35.8125 22.375 C37.23990678 26.28609457 39.12368551 29.59060283 41.3125 33.125 C63.43339001 70.72640133 70.77665169 117.86934415 77.8125 160.375 C78.8025 166.315 79.7925 172.255 80.8125 178.375 C97.6425 178.375 114.4725 178.375 131.8125 178.375 C131.8125 184.975 131.8125 191.575 131.8125 198.375 C115.9725 198.375 100.1325 198.375 83.8125 198.375 C84.38901847 208.17581403 84.98027604 217.91684033 85.86572266 227.68530273 C87.15173636 242.04785203 88.19114507 256.41178003 88.9375 270.8125 C88.99500931 271.88132416 88.99500931 271.88132416 89.05368042 272.97174072 C90.01604618 291.09398142 90.32217552 309.2329942 90.8125 327.375 C165.7225 327.375 240.6325 327.375 317.8125 327.375 C317.04191977 310.59416037 317.04191977 310.59416037 315.1875 294 C315.01492676 292.83138428 314.84235352 291.66276855 314.66455078 290.45874023 C309.80514329 259.1843585 300.84519283 228.78481437 286.8125 200.375 C286.36680664 199.46588867 285.92111328 198.55677734 285.46191406 197.62011719 C275.51779963 177.5066613 263.64523057 159.02330909 249.8125 141.375 C249.04421875 140.39273438 248.2759375 139.41046875 247.484375 138.3984375 C234.05489508 121.63574134 218.75824027 105.5706456 201.8125 92.375 C200.65007423 91.42595009 199.49006909 90.47393041 198.33203125 89.51953125 C189.84129094 82.55251293 181.09846573 76.23787486 171.8125 70.375 C171.23628906 70.00842285 170.66007812 69.6418457 170.06640625 69.26416016 C129.92422942 43.90222361 83.37214468 26.02375581 35.8125 22.375 Z M-235.04882812 125.14306641 C-239.06912305 129.33867556 -242.68439092 133.73644489 -246.1875 138.375 C-247.19492664 139.6562769 -248.2042006 140.93610244 -249.21484375 142.21484375 C-258.17129987 153.63006441 -266.68609415 165.3721883 -273.1875 178.375 C-209.1675 178.375 -145.1475 178.375 -79.1875 178.375 C-76.8775 164.185 -74.5675 149.995 -72.1875 135.375 C-64.46014475 98.21010093 -55.87210264 61.76972383 -37.28149414 28.37597656 C-36.20012692 26.39809535 -35.18302522 24.39724035 -34.1875 22.375 C-109.69319576 20.94671823 -184.94585926 73.82663492 -235.04882812 125.14306641 Z M-284.1875 198.375 C-288.43891235 206.8778247 -292.44024909 214.9084828 -295.6875 223.75 C-296.25259277 225.27838501 -296.25259277 225.27838501 -296.82910156 226.83764648 C-306.06907414 252.2866242 -312.2073735 278.47165109 -315.1875 305.375 C-315.28611328 306.26509766 -315.38472656 307.15519531 -315.48632812 308.07226562 C-315.57849609 308.98169922 -315.67066406 309.89113281 -315.765625 310.828125 C-315.8471582 311.62895508 -315.92869141 312.42978516 -316.01269531 313.25488281 C-316.27599599 317.95457927 -316.1875 322.66793361 -316.1875 327.375 C-241.6075 327.375 -167.0275 327.375 -90.1875 327.375 C-89.43068187 322.83409123 -89.04274017 318.96510313 -88.9765625 314.41796875 C-88.95059658 313.00609303 -88.92403545 311.59422817 -88.89697266 310.18237305 C-88.88369934 309.43321625 -88.87042603 308.68405945 -88.85675049 307.91220093 C-88.21654006 273.91702716 -86.00977866 239.91198836 -82.4152832 206.10253906 C-82.20082134 203.53451345 -82.1875 200.95196516 -82.1875 198.375 C-148.8475 198.375 -215.5075 198.375 -284.1875 198.375 Z M-62.1875 198.375 C-65.69285817 233.84795131 -65.69285817 233.84795131 -68.1875 269.375 C-68.24534668 270.38095215 -68.30319336 271.3869043 -68.36279297 272.42333984 C-69.39217283 290.76585038 -69.1875 308.96610592 -69.1875 327.375 C-22.9875 327.375 23.2125 327.375 70.8125 327.375 C70.8125 311.3969889 70.75650107 295.56237222 70 279.625 C69.95681641 278.67974457 69.91363281 277.73448914 69.86914062 276.7605896 C69.23815001 263.05211841 68.39895502 249.36739182 67.3125 235.6875 C67.25283051 234.93287476 67.19316101 234.17824951 67.13168335 233.40075684 C66.46311115 225.06121651 65.67463589 216.73645675 64.78125 208.41796875 C64.65949402 207.25543327 64.65949402 207.25543327 64.53527832 206.06941223 C64.14860899 202.0957592 64.14860899 202.0957592 62.8125 198.375 C21.5625 198.375 -19.6875 198.375 -62.1875 198.375 Z M-316.1875 347.375 C-316.1875 377.38023027 -310.31375725 406.87422956 -301.1875 435.375 C-300.91711914 436.23254883 -300.64673828 437.09009766 -300.36816406 437.97363281 C-287.20512372 479.26723429 -264.22683977 517.35314501 -235.1875 549.375 C-234.65318359 549.96571289 -234.11886719 550.55642578 -233.56835938 551.16503906 C-225.50533188 560.05191882 -217.31008393 568.56876207 -208.1875 576.375 C-207.27484375 577.17679688 -206.3621875 577.97859375 -205.421875 578.8046875 C-161.36321117 617.2122562 -106.3465337 641.40206584 -49 651.25 C-47.95030029 651.43042847 -47.95030029 651.43042847 -46.87939453 651.61450195 C-42.61526407 652.29162279 -38.50070251 652.47569733 -34.1875 652.375 C-34.6721875 651.48941406 -35.156875 650.60382813 -35.65625 649.69140625 C-37.49277079 646.31294909 -39.29055804 642.9152347 -41.07177734 639.50732422 C-41.76731709 638.17803666 -42.46738581 636.85109697 -43.17431641 635.52783203 C-63.13336013 597.82049669 -70.63781694 552.64241601 -76.9831543 510.95043945 C-77.12922119 509.99226318 -77.27528809 509.03408691 -77.42578125 508.046875 C-77.54993408 507.2125293 -77.67408691 506.37818359 -77.80200195 505.51855469 C-78.16600004 503.20063844 -78.16600004 503.20063844 -79.1875 500.375 C-97.3375 500.375 -115.4875 500.375 -134.1875 500.375 C-134.1875 493.775 -134.1875 487.175 -134.1875 480.375 C-117.0275 480.375 -99.8675 480.375 -82.1875 480.375 C-82.12895284 473.57733393 -82.12895284 473.57733393 -82.52294922 466.88549805 C-82.5966423 466.12004166 -82.67033539 465.35458527 -82.7462616 464.56593323 C-82.82741714 463.76429245 -82.90857269 462.96265167 -82.9921875 462.13671875 C-83.16462454 460.34784963 -83.33672981 458.5589485 -83.50854492 456.77001953 C-83.59913177 455.84014221 -83.68971863 454.91026489 -83.78305054 453.95220947 C-86.629584 424.51699558 -88.27883182 395.14583476 -88.84643555 365.58056641 C-88.86259918 364.80781372 -88.87876282 364.03506104 -88.89541626 363.2388916 C-88.9250246 361.80252341 -88.95108414 360.36607541 -88.9727478 358.92956543 C-89.05722381 354.91504495 -89.51847644 351.38914139 -90.1875 347.375 C-164.7675 347.375 -239.3475 347.375 -316.1875 347.375 Z M-69.1875 347.375 C-69.29848914 374.27984202 -69.29848914 374.27984202 -68.4375 401.125 C-68.39592773 401.94068451 -68.35435547 402.75636902 -68.31152344 403.59677124 C-67.56382119 418.15013778 -66.43765887 432.66946963 -65.1875 447.1875 C-65.10391235 448.16690552 -65.02032471 449.14631104 -64.9342041 450.15539551 C-64.69173044 452.96488863 -64.44134619 455.77354485 -64.1875 458.58203125 C-64.08124298 459.80310326 -64.08124298 459.80310326 -63.97283936 461.04884338 C-63.36292026 467.59536686 -62.27728643 473.83628142 -61.1875 480.375 C-20.2675 480.375 20.6525 480.375 62.8125 480.375 C65.43313715 459.55445778 65.43313715 459.55445778 67.375 438.6875 C67.46547104 437.52365784 67.46547104 437.52365784 67.55776978 436.33630371 C68.61514844 422.61153891 69.36831743 408.87538889 70 395.125 C70.04279083 394.2248819 70.08558167 393.32476379 70.12966919 392.39736938 C70.83166478 377.36461321 70.8125 362.44893645 70.8125 347.375 C24.6125 347.375 -21.5875 347.375 -69.1875 347.375 Z M90.8125 347.375 C90.4825 359.915 90.1525 372.455 89.8125 385.375 C89.46998093 392.95623415 89.12604973 400.52319877 88.67504883 408.09643555 C88.50057539 411.05275043 88.34063943 414.00961398 88.18164062 416.96679688 C86.95273616 438.18050834 84.78460841 459.17483454 82.8125 480.375 C149.1425 480.375 215.4725 480.375 283.8125 480.375 C288.81411255 470.37177489 293.49391749 460.83528212 297.375 450.4375 C297.6058429 449.82248627 297.83668579 449.20747253 298.07452393 448.57382202 C310.08427783 416.45443783 317.8125 381.79807653 317.8125 347.375 C242.9025 347.375 167.9925 347.375 90.8125 347.375 Z M-58.1875 500.375 C-57.4035915 511.04215558 -57.4035915 511.04215558 -55.875 521.47265625 C-55.68117989 522.52984108 -55.68117989 522.52984108 -55.48344421 523.60838318 C-55.06112988 525.88670331 -54.62612541 528.16226677 -54.1875 530.4375 C-54.03544098 531.23269043 -53.88338196 532.02788086 -53.72671509 532.84716797 C-42.54819989 598.61993895 -42.54819989 598.61993895 -7.1875 652.375 C-3.29880954 654.69296451 0.36635837 655.03368765 4.8125 654.375 C7.4075012 653.16031859 8.75568343 652.257087 10.8125 650.375 C11.79476562 649.50681641 11.79476562 649.50681641 12.796875 648.62109375 C43.25381003 618.434167 50.03151868 561.19889847 57.1875 521 C57.32109924 520.2533609 57.45469849 519.5067218 57.59234619 518.73745728 C57.97077068 516.60975368 58.34229713 514.48098083 58.7109375 512.3515625 C58.92411621 511.12518066 59.13729492 509.89879883 59.35693359 508.63525391 C59.92782408 505.09833986 59.92782408 505.09833986 59.8125 500.375 C20.8725 500.375 -18.0675 500.375 -58.1875 500.375 Z M79.8125 501.375 C79.39032737 503.67134293 79.02206906 505.95652878 78.68359375 508.265625 C78.45592294 509.75677747 78.2275358 511.24782071 77.99853516 512.73876953 C77.81668671 513.93110199 77.81668671 513.93110199 77.63116455 515.14752197 C73.07872633 544.73727698 67.06171771 573.87133218 57.8125 602.375 C57.38203369 603.73165771 57.38203369 603.73165771 56.94287109 605.11572266 C51.65245834 621.68412319 44.39769114 637.26115503 35.8125 652.375 C45.25742125 651.90382682 54.31394044 650.77344295 63.5625 648.8125 C64.80604248 648.55146484 66.04958496 648.29042969 67.33081055 648.02148438 C80.07346426 645.25025394 92.46762721 641.55706912 104.8125 637.375 C105.58867676 637.11219238 106.36485352 636.84938477 107.16455078 636.57861328 C146.73625577 622.93853905 182.88517049 600.42204875 213.8125 572.375 C214.43560059 571.81361328 215.05870117 571.25222656 215.70068359 570.67382812 C224.83255492 562.42826976 224.83255492 562.42826976 233.1328125 553.36328125 C235.15204689 550.97307124 237.29624158 548.71900058 239.4375 546.4375 C249.17984351 535.70914891 257.56318534 523.96026239 265.625 511.9375 C266.24213867 511.0192041 266.85927734 510.1009082 267.49511719 509.15478516 C268.06004883 508.30062012 268.62498047 507.44645508 269.20703125 506.56640625 C269.71081299 505.80529541 270.21459473 505.04418457 270.73364258 504.26000977 C271.97807733 502.44768375 271.97807733 502.44768375 271.8125 500.375 C246.92646549 500.35167397 222.04043261 500.33402229 197.15438938 500.32318783 C185.600237 500.31802424 174.04609139 500.31098035 162.49194336 500.29956055 C152.42525651 500.28961563 142.35857456 500.28314703 132.29188293 500.28091151 C126.95813289 500.27960407 121.62439688 500.27651616 116.29065132 500.26926994 C111.27652341 500.26251275 106.26241541 500.26038242 101.24828339 500.26189232 C99.40232421 500.26161585 97.55636442 500.25960896 95.71040916 500.25579453 C93.2015322 500.25086197 90.69273167 500.25200008 88.18385315 500.25474548 C87.07346572 500.25037622 87.07346572 500.25037622 85.94064623 500.24591869 C82.591833 499.96090528 82.591833 499.96090528 79.8125 501.375 Z " fill="#FFFFFF" transform="translate(1126.1875,552.625)"/>
<path d="M0 0 C0.85929108 -0.00860046 1.71858215 -0.01720093 2.60391235 -0.02606201 C3.54885056 -0.03032196 4.49378876 -0.03458191 5.46736145 -0.03897095 C6.95786011 -0.05123718 6.95786011 -0.05123718 8.47846985 -0.06375122 C11.77790215 -0.08863101 15.07729131 -0.10512911 18.37678528 -0.11953735 C20.06545936 -0.12752287 20.06545936 -0.12752287 21.78824806 -0.13566971 C27.74849899 -0.16241426 33.70872889 -0.18178382 39.66902161 -0.19619751 C45.82506874 -0.21283602 51.98057957 -0.25760403 58.13642406 -0.30856895 C62.86939099 -0.34223303 67.60223061 -0.35377417 72.33530617 -0.35942459 C74.60429794 -0.3661408 76.87328122 -0.38137232 79.1421566 -0.4053154 C82.32131411 -0.43694647 85.49902528 -0.4370061 88.67829895 -0.42959595 C89.613116 -0.44600128 90.54793304 -0.46240662 91.51107788 -0.47930908 C97.91687603 -0.41829796 101.06483469 0.91117907 105.89631653 5.15390015 C107.63850403 7.4703064 107.63850403 7.4703064 108.77131653 9.71640015 C109.35526184 10.83208374 109.35526184 10.83208374 109.95100403 11.9703064 C113.47970669 20.12131793 112.33217938 28.87196644 109.89631653 37.15390015 C110.15739342 40.23460745 110.58138357 43.03753333 111.41975403 46.0093689 C113.32103784 54.56514604 111.98689295 62.50691191 107.89631653 70.15390015 C105.36254652 73.99542242 103.0634395 76.208846 98.89631653 78.15390015 C95.58759343 78.59911598 92.30340519 78.57399512 88.96882629 78.55795288 C87.97311615 78.56481613 86.97740601 78.57167938 85.95152283 78.57875061 C82.663444 78.59703661 79.37584149 78.59317842 76.08772278 78.5874939 C73.79995569 78.59205483 71.51218998 78.59736013 69.22442627 78.6033783 C64.43034803 78.61231296 59.63643635 78.60988212 54.84236145 78.59994507 C48.7009045 78.58845526 42.5600225 78.60866579 36.41864109 78.63786221 C31.69426831 78.65621434 26.97003356 78.65593366 22.24563408 78.65022469 C19.98143139 78.65007135 17.71721941 78.65612573 15.45305061 78.66851616 C12.286068 78.68340514 9.12015073 78.67276364 5.95320129 78.65560913 C5.01950211 78.6652771 4.08580292 78.67494507 3.12380981 78.68490601 C-3.53050416 78.60948715 -6.84555839 77.24595575 -11.71305847 72.6265564 C-17.10862757 65.95600693 -18.0395951 59.5708397 -18.10368347 51.15390015 C-17.6013005 47.3804458 -16.67256057 43.81368275 -15.43962097 40.21640015 C-14.99424997 37.48202937 -15.70310407 35.76247497 -16.60368347 33.15390015 C-18.79316364 25.59666213 -18.68169475 18.05847124 -15.47868347 10.77890015 C-12.16350788 4.94077842 -6.86093047 0.05106871 0 0 Z M1.89631653 17.15390015 C0.85724483 24.18172057 0.85724483 24.18172057 1.89631653 31.15390015 C13.6135844 31.1770223 25.33084689 31.19481458 37.0481329 31.20571232 C42.48833965 31.21094143 47.92853084 31.21803958 53.36872864 31.2293396 C58.61417355 31.24016749 63.85960345 31.24617677 69.10505867 31.24877739 C71.11102599 31.25063182 73.11699245 31.25425276 75.12295341 31.2596302 C77.92234477 31.26683934 80.72167331 31.26789114 83.52107239 31.26742554 C84.35904358 31.27102081 85.19701477 31.27461609 86.06037903 31.27832031 C89.78135083 31.6306872 89.78135083 31.6306872 92.89631653 30.15390015 C92.99505469 28.15590443 93.02603452 26.15432856 93.02131653 24.15390015 C93.02389465 23.06077515 93.02647278 21.96765015 93.02912903 20.84140015 C93.20179408 18.2355966 93.20179408 18.2355966 91.89631653 17.15390015 C89.09641933 17.05870647 86.32125479 17.02836071 83.52107239 17.04037476 C82.64310501 17.04022873 81.76513763 17.0400827 80.86056519 17.03993225 C77.94407218 17.0406317 75.0276422 17.04842559 72.11116028 17.0562439 C70.09476761 17.05810796 68.07837449 17.05953192 66.0619812 17.06053162 C60.74366515 17.0643577 55.42537622 17.07418876 50.10707092 17.0852356 C44.68460965 17.09544777 39.26214401 17.10002882 33.8396759 17.10507202 C23.1918775 17.11581095 12.54409927 17.13288845 1.89631653 17.15390015 Z M1.89631653 48.15390015 C0.89238677 54.67933415 0.89238677 54.67933415 1.89631653 61.15390015 C13.6135844 61.1770223 25.33084689 61.19481458 37.0481329 61.20571232 C42.48833965 61.21094143 47.92853084 61.21803958 53.36872864 61.2293396 C58.61417355 61.24016749 63.85960345 61.24617677 69.10505867 61.24877739 C71.11102599 61.25063182 73.11699245 61.25425276 75.12295341 61.2596302 C77.92234477 61.26683934 80.72167331 61.26789114 83.52107239 61.26742554 C84.35904358 61.27102081 85.19701477 61.27461609 86.06037903 61.27832031 C89.78135083 61.6306872 89.78135083 61.6306872 92.89631653 60.15390015 C92.99482824 58.32274132 93.02604282 56.48770081 93.02131653 54.65390015 C93.02389465 53.65358765 93.02647278 52.65327515 93.02912903 51.62265015 C93.17502035 49.20990392 93.17502035 49.20990392 91.89631653 48.15390015 C89.09641933 48.05870647 86.32125479 48.02836071 83.52107239 48.04037476 C82.64310501 48.04022873 81.76513763 48.0400827 80.86056519 48.03993225 C77.94407218 48.0406317 75.0276422 48.04842559 72.11116028 48.0562439 C70.09476761 48.05810796 68.07837449 48.05953192 66.0619812 48.06053162 C60.74366515 48.0643577 55.42537622 48.07418876 50.10707092 48.0852356 C44.68460965 48.09544777 39.26214401 48.10002882 33.8396759 48.10507202 C23.1918775 48.11581095 12.54409927 48.13288845 1.89631653 48.15390015 Z " fill="#FFFFFF" transform="translate(894.1036834716797,1280.8460998535156)"/>
<path d="M0 0 C0.81678726 -0.00992981 1.63357452 -0.01985962 2.47511292 -0.03009033 C5.1745238 -0.05927435 7.87369953 -0.07292817 10.57324219 -0.08398438 C12.45408126 -0.09549343 14.33492029 -0.10700882 16.21575928 -0.11853027 C20.15996389 -0.13953424 24.10408718 -0.15122957 28.04833984 -0.15820312 C33.09018193 -0.16916122 38.13094061 -0.21719538 43.17244339 -0.27414703 C47.0587879 -0.31149144 50.94487401 -0.32181581 54.83138275 -0.32487488 C56.68927678 -0.33090994 58.54716722 -0.34690655 60.40488434 -0.37324524 C77.93348581 -0.6039974 77.93348581 -0.6039974 83.55828857 4.63000488 C89.68958192 12.53938186 90.43518006 20.56208869 89.87011719 30.32226562 C89.2186487 32.65988786 88.55485114 34.9941702 87.87011719 37.32226562 C88.13118253 40.4028367 88.55161705 43.20397625 89.39746094 46.17382812 C91.24096744 54.55340314 90.39091702 63.80513599 85.73339844 71.10351562 C82.83490576 74.83406772 79.6680079 77.95546244 74.83754539 78.58873558 C72.2915098 78.69189935 69.76258138 78.69311686 67.21459961 78.6628418 C66.24826599 78.66327988 65.28193237 78.66371796 64.28631592 78.66416931 C61.09919885 78.66208293 57.91261087 78.63875857 54.72558594 78.61523438 C52.51313057 78.6096379 50.30067148 78.60536804 48.08821106 78.60237122 C42.27008773 78.59092659 36.4521897 78.56146246 30.63415527 78.52825928 C24.69526212 78.4975503 18.75633251 78.48386409 12.81738281 78.46875 C1.16819538 78.4365926 -10.48082497 78.38540066 -22.12988281 78.32226562 C-22.1997664 70.93277604 -22.25288694 63.54335912 -22.28531933 56.15360451 C-22.30089482 52.72126109 -22.32198181 49.28914578 -22.35620117 45.85693359 C-22.39539876 41.90009404 -22.40965911 37.94334294 -22.42285156 33.98632812 C-22.43833542 32.76926178 -22.45381927 31.55219543 -22.46977234 30.29824829 C-22.47147185 21.59454447 -22.0023419 12.45545201 -15.69238281 5.82226562 C-15.11617187 5.19320313 -14.53996094 4.56414062 -13.94628906 3.91601562 C-9.62016051 0.1201867 -5.58875285 0.01627226 0 0 Z M-2.12988281 17.32226562 C-3.17965246 20.47157456 -3.23119876 22.71041019 -3.19238281 26.00976562 C-3.18335938 27.00363281 -3.17433594 27.9975 -3.16503906 29.02148438 C-3.1534375 29.78074219 -3.14183594 30.54 -3.12988281 31.32226562 C6.37086044 31.34539046 15.87159407 31.36318143 25.37235928 31.3740778 C29.78348723 31.37930632 34.19459599 31.3864034 38.60571289 31.39770508 C42.85912834 31.40853506 47.11252528 31.41454269 51.36595345 31.41714287 C52.99233352 31.41899692 54.61871253 31.42261715 56.24508476 31.42799568 C58.51521912 31.43520761 60.78527604 31.43625651 63.05541992 31.43579102 C64.35003647 31.43801163 65.64465302 31.44023224 66.97850037 31.44252014 C69.76454101 31.65354674 69.76454101 31.65354674 70.87011719 30.32226562 C70.96885535 28.32426991 70.99983518 26.32269404 70.99511719 24.32226562 C70.99769531 23.22914062 71.00027344 22.13601563 71.00292969 21.00976562 C71.17559474 18.40396208 71.17559474 18.40396208 69.87011719 17.32226562 C67.63081833 17.22790033 65.38849969 17.20484235 63.1472168 17.20874023 C62.44481369 17.20859421 61.74241058 17.20844818 61.01872253 17.20829773 C58.6866044 17.2089969 56.35456519 17.21678945 54.02246094 17.22460938 C52.40963281 17.22647354 50.79680412 17.22789745 49.18397522 17.22889709 C44.93096362 17.23272239 40.67798595 17.24255277 36.42498779 17.25360107 C32.08834289 17.26381494 27.75169252 17.26839466 23.41503906 17.2734375 C14.9000495 17.28417504 6.38508756 17.3012516 -2.12988281 17.32226562 Z M-3.12988281 48.32226562 C-3.12988281 52.61226562 -3.12988281 56.90226562 -3.12988281 61.32226562 C6.37086044 61.34539046 15.87159407 61.36318143 25.37235928 61.3740778 C29.78348723 61.37930632 34.19459599 61.3864034 38.60571289 61.39770508 C42.85912834 61.40853506 47.11252528 61.41454269 51.36595345 61.41714287 C52.99233352 61.41899692 54.61871253 61.42261715 56.24508476 61.42799568 C58.51521912 61.43520761 60.78527604 61.43625651 63.05541992 61.43579102 C64.35003647 61.43801163 65.64465302 61.44023224 66.97850037 61.44252014 C69.76454101 61.65354674 69.76454101 61.65354674 70.87011719 60.32226562 C70.9686289 58.49110679 70.99984348 56.65606629 70.99511719 54.82226562 C70.99769531 53.82195312 71.00027344 52.82164063 71.00292969 51.79101562 C71.14882101 49.3782694 71.14882101 49.3782694 69.87011719 48.32226562 C67.60019832 48.22786584 65.32729751 48.20484336 63.05541992 48.20874023 C62.34326324 48.20859421 61.63110657 48.20844818 60.89736938 48.20829773 C58.53278606 48.20899692 56.16828057 48.21678957 53.80371094 48.22460938 C52.16846256 48.22647353 50.53321362 48.22789745 48.89796448 48.22889709 C44.58576933 48.23272245 40.27360766 48.24255287 35.96142578 48.25360107 C31.56445773 48.26381482 27.1674843 48.26839464 22.77050781 48.2734375 C14.13702888 48.28417513 5.50357719 48.30125176 -3.12988281 48.32226562 Z " fill="#FFFFFF" transform="translate(1413.1298828125,1280.677734375)"/>
<path d="M0 0 C1.02485504 -0.00043808 2.04971008 -0.00087616 3.10562134 -0.00132751 C6.48751993 0.00075974 9.8689206 0.02408839 13.25073242 0.04760742 C15.59770944 0.05320359 17.94468997 0.05747359 20.29167175 0.06047058 C26.46489154 0.07191766 32.63789913 0.10138397 38.81103516 0.13458252 C45.11186859 0.16528616 51.41273635 0.17897657 57.71362305 0.1940918 C70.07374225 0.22625355 82.43370406 0.2774485 94.79370117 0.34057617 C94.79370117 5.95057617 94.79370117 11.56057617 94.79370117 17.34057617 C46.28370117 17.83557617 46.28370117 17.83557617 -3.20629883 18.34057617 C-3.20629883 22.30057617 -3.20629883 26.26057617 -3.20629883 30.34057617 C-2.15473602 30.3442218 -1.10317322 30.34786743 -0.01974487 30.35162354 C9.89725202 30.38858796 19.81393881 30.44637655 29.73069954 30.52447891 C34.82886149 30.56396373 39.92685046 30.59614734 45.02514648 30.61157227 C49.94664914 30.62673215 54.86767625 30.66116601 59.78896713 30.70888519 C61.66515847 30.72370585 63.5414177 30.73161758 65.41766739 30.73246002 C68.04889692 30.73482938 70.67881193 30.76190573 73.30981445 30.79467773 C74.08305557 30.78964737 74.85629669 30.784617 75.65296936 30.7794342 C80.85253943 30.87942802 83.77715954 32.07828743 87.79370117 35.34057617 C94.65396858 42.51267391 95.26276479 49.00925922 95.10229492 58.63745117 C94.52072612 65.6162768 92.40195066 70.19729635 87.16870117 74.84057617 C83.85446522 77.44565247 81.80539828 78.46588846 77.56698608 78.46083069 C76.68075058 78.46220535 75.79451508 78.46358002 74.88142395 78.46499634 C73.90678696 78.46140106 72.93214996 78.45780579 71.92797852 78.45410156 C70.90356155 78.45424759 69.87914459 78.45439362 68.82368469 78.45454407 C65.42564807 78.45384543 62.02766576 78.44605528 58.62963867 78.43823242 C56.27837148 78.43636807 53.9271039 78.43494425 51.57583618 78.4339447 C45.37800022 78.43012088 39.18018757 78.42029174 32.98236084 78.40924072 C26.66166499 78.3990237 20.34096539 78.39444646 14.02026367 78.3894043 C1.61139924 78.37866937 -10.79744786 78.36159455 -23.20629883 78.34057617 C-23.20629883 72.73057617 -23.20629883 67.12057617 -23.20629883 61.34057617 C9.46370117 61.34057617 42.13370117 61.34057617 75.79370117 61.34057617 C75.79370117 57.05057617 75.79370117 52.76057617 75.79370117 48.34057617 C74.20089577 48.35723076 74.20089577 48.35723076 72.57591248 48.3742218 C62.55649387 48.47569089 52.53717986 48.55058626 42.51736355 48.59963703 C37.3663379 48.62570269 32.21572787 48.66104559 27.06494141 48.71777344 C22.09175102 48.772201 17.11895976 48.80201951 12.14549446 48.81496239 C10.25048606 48.82418297 8.35549888 48.84218893 6.46066093 48.86922646 C3.80093493 48.90566015 1.14284656 48.91051563 -1.51708984 48.90820312 C-2.68558472 48.93516769 -2.68558472 48.93516769 -3.87768555 48.962677 C-9.56978662 48.90931978 -13.04331125 47.21756389 -17.20629883 43.34057617 C-18.94848633 41.02416992 -18.94848633 41.02416992 -20.08129883 38.77807617 C-20.4705957 38.03428711 -20.85989258 37.29049805 -21.26098633 36.52416992 C-24.48088323 29.08647419 -24.3297535 20.41913211 -21.45629883 12.90307617 C-16.65452929 2.38972814 -11.07226946 -0.12390252 0 0 Z " fill="#FFFFFF" transform="translate(529.206298828125,1280.659423828125)"/>
<path d="M0 0 C1.31673203 -0.002062 1.31673203 -0.002062 2.6600647 -0.00416565 C3.62535095 -0.00057037 4.59063721 0.0030249 5.58517456 0.00672913 C7.10716965 0.00651009 7.10716965 0.00651009 8.65991211 0.00628662 C12.02548332 0.00698524 15.3909997 0.0147753 18.75656128 0.02259827 C21.08540822 0.02446263 23.41425555 0.02588644 25.74310303 0.02688599 C31.88175534 0.03070975 38.02038411 0.04053886 44.1590271 0.05158997 C50.41939984 0.0618071 56.67977636 0.06638426 62.94015503 0.07142639 C75.23052997 0.08216123 87.52088742 0.09923598 99.81124878 0.12025452 C99.81124878 5.73025452 99.81124878 11.34025452 99.81124878 17.12025452 C67.47124878 17.12025452 35.13124878 17.12025452 1.81124878 17.12025452 C1.81124878 31.64025452 1.81124878 46.16025452 1.81124878 61.12025452 C27.88124878 61.12025452 53.95124878 61.12025452 80.81124878 61.12025452 C80.81124878 55.51025452 80.81124878 49.90025452 80.81124878 44.12025452 C76.19124878 44.12025452 71.57124878 44.12025452 66.81124878 44.12025452 C66.81124878 38.51025452 66.81124878 32.90025452 66.81124878 27.12025452 C77.70124878 27.12025452 88.59124878 27.12025452 99.81124878 27.12025452 C99.81124878 43.95025452 99.81124878 60.78025452 99.81124878 78.12025452 C74.09704546 78.28068975 74.09704546 78.28068975 63.13546753 78.31556702 C55.65602264 78.33947767 48.17677363 78.36776319 40.69747925 78.42201233 C34.66744464 78.46547589 28.63762011 78.48939306 22.60744095 78.49976349 C20.30692869 78.50715386 18.00642792 78.52158545 15.7060051 78.54317474 C12.48350942 78.57221464 9.26188161 78.57621015 6.03927612 78.57435608 C5.08837097 78.58873718 4.13746582 78.60311829 3.15774536 78.61793518 C-2.47865725 78.58284864 -5.72510379 77.90238534 -10.18875122 74.12025452 C-16.64814564 67.29175184 -17.65044329 60.70525967 -17.62234497 51.69056702 C-17.62758682 50.70079865 -17.63282867 49.71103027 -17.63822937 48.69126892 C-17.64462953 46.60526972 -17.64333868 44.51923433 -17.63479614 42.4332428 C-17.62629569 39.26184489 -17.65506129 36.09225568 -17.6867981 32.92103577 C-17.68841071 30.88588005 -17.68783143 28.85072118 -17.68484497 26.81556702 C-17.69607895 25.87778412 -17.70731293 24.94000122 -17.71888733 23.97380066 C-17.64366594 16.7757233 -16.1135303 10.52632635 -11.33718872 4.96400452 C-10.45933716 4.29884827 -10.45933716 4.29884827 -9.56375122 3.62025452 C-8.9733606 3.15619202 -8.38296997 2.69212952 -7.77468872 2.21400452 C-5.01384254 0.30997267 -3.31212078 -0.00399051 0 0 Z " fill="#FFFFFF" transform="translate(1034.1887512207031,1280.8797454833984)"/>
<path d="M0 0 C0.84896851 -0.0065712 1.69793701 -0.0131424 2.57263184 -0.01991272 C5.38989343 -0.03966715 8.20710163 -0.05131371 11.02441406 -0.0612793 C11.9859565 -0.06535482 12.94749893 -0.06943035 13.93817902 -0.07362938 C19.0284453 -0.09450029 24.11868454 -0.10879701 29.20898438 -0.11816406 C34.46603055 -0.12922448 39.72265297 -0.16361728 44.97954941 -0.20333576 C49.0219196 -0.22948834 53.06418869 -0.23785475 57.10663605 -0.24144554 C59.04430245 -0.24631581 60.98196422 -0.25794233 62.91954803 -0.27648354 C65.63420602 -0.30084376 68.34776607 -0.2999156 71.0625 -0.29296875 C72.25972687 -0.31218384 72.25972687 -0.31218384 73.48114014 -0.33178711 C78.71505842 -0.2830566 81.61561387 0.75927682 85.79003906 4.17700195 C93.17334814 11.89591599 93.17798311 19.24050074 93.22753906 29.42700195 C93.26041016 30.60391602 93.29328125 31.78083008 93.32714844 32.9934082 C93.38040077 41.69774411 92.13420936 48.70088387 85.90112305 55.12329102 C84.26278444 56.55306844 82.53372712 57.8777834 80.79003906 59.17700195 C81.18384766 59.68150879 81.57765625 60.18601562 81.98339844 60.70581055 C83.75727517 62.98403507 85.52372408 65.26791065 87.29003906 67.55200195 C87.91007813 68.34606445 88.53011719 69.14012695 89.16894531 69.95825195 C89.75546875 70.71879883 90.34199219 71.4793457 90.94628906 72.26293945 C91.76323242 73.31553955 91.76323242 73.31553955 92.59667969 74.3894043 C93.79003906 76.17700195 93.79003906 76.17700195 93.79003906 78.17700195 C75.33163559 79.64096156 75.33163559 79.64096156 69.86035156 76.48950195 C67.3208996 73.5523045 65.4430334 70.3749957 63.58638 66.96875 C61.14190743 63.12139695 59.30559461 60.59923092 54.80303955 59.34483337 C51.09671989 59.03878399 47.48105451 59.00894742 43.76269531 59.0793457 C42.40504306 59.07368566 41.04740209 59.06406553 39.68980408 59.05067444 C36.13635867 59.02616059 32.58532541 59.05504282 29.03210449 59.09545898 C25.39860029 59.12720509 21.76539544 59.10789437 18.13183594 59.09301758 C11.0172534 59.07134441 3.90442654 59.11086135 -3.20996094 59.17700195 C-3.20996094 65.44700195 -3.20996094 71.71700195 -3.20996094 78.17700195 C-9.47996094 78.17700195 -15.74996094 78.17700195 -22.20996094 78.17700195 C-22.30082102 70.67440505 -22.3739964 63.17201725 -22.41720963 55.66900158 C-22.43796424 52.18390933 -22.46605476 48.69921741 -22.51171875 45.21435547 C-22.56404404 41.19535784 -22.58300606 37.1767717 -22.60058594 33.1574707 C-22.62123108 31.92369186 -22.64187622 30.68991302 -22.66314697 29.41874695 C-22.66529817 21.01403809 -22.06054894 12.38615535 -16.13726807 5.91130066 C-10.69361055 0.97958979 -7.2892868 0.02431037 0 0 Z M-2.20996094 17.17700195 C-5.93972113 24.63652234 -3.20996094 33.83700462 -3.20996094 42.17700195 C22.20003906 42.17700195 47.61003906 42.17700195 73.79003906 42.17700195 C73.79003906 33.92700195 73.79003906 25.67700195 73.79003906 17.17700195 C48.71003906 17.17700195 23.63003906 17.17700195 -2.20996094 17.17700195 Z " fill="#FFFFFF" transform="translate(775.2099609375,1280.822998046875)"/>
<path d="M0 0 C0.80995422 -0.0065712 1.61990845 -0.0131424 2.45440674 -0.01991272 C5.14180591 -0.0396646 7.82914912 -0.05131325 10.51660156 -0.0612793 C11.89271984 -0.06739259 11.89271984 -0.06739259 13.29663849 -0.07362938 C18.15348588 -0.0944994 23.01030495 -0.10879638 27.8671875 -0.11816406 C32.88210633 -0.1292231 37.89658078 -0.16361445 42.91134262 -0.20333576 C46.76842061 -0.22949413 50.62539268 -0.23785527 54.48255157 -0.24144554 C56.33090461 -0.24631448 58.17925282 -0.25793723 60.02751923 -0.27648354 C62.61766122 -0.3008559 65.20665322 -0.29991352 67.796875 -0.29296875 C68.55762329 -0.30577881 69.31837158 -0.31858887 70.10217285 -0.33178711 C76.72674021 -0.26719397 80.14185762 2.30224014 84.84472656 6.67700195 C90.98555847 14.56290833 90.57633292 26.12465039 90.45019531 35.59887695 C90.44595047 36.8248761 90.44170563 38.05087524 90.43733215 39.31402588 C90.4206951 43.1852524 90.38307066 47.05593587 90.34472656 50.92700195 C90.32966039 53.57022354 90.3159754 56.21345338 90.30371094 58.85668945 C90.27084064 65.29699916 90.21916275 71.73690886 90.15722656 78.17700195 C83.88722656 78.17700195 77.61722656 78.17700195 71.15722656 78.17700195 C71.15722656 74.21700195 71.15722656 70.25700195 71.15722656 66.17700195 C46.73722656 66.17700195 22.31722656 66.17700195 -2.84277344 66.17700195 C-2.84277344 70.13700195 -2.84277344 74.09700195 -2.84277344 78.17700195 C-9.11277344 78.17700195 -15.38277344 78.17700195 -21.84277344 78.17700195 C-21.93363352 70.67440505 -22.0068089 63.17201725 -22.05002213 55.66900158 C-22.07077674 52.18390933 -22.09886726 48.69921741 -22.14453125 45.21435547 C-22.19685654 41.19535784 -22.21581856 37.1767717 -22.23339844 33.1574707 C-22.25404358 31.92369186 -22.27468872 30.68991302 -22.29595947 29.41874695 C-22.29811067 21.01403809 -21.69336144 12.38615535 -15.77008057 5.91130066 C-10.44579862 1.08773873 -7.13061461 0.0249381 0 0 Z M-1.84277344 17.17700195 C-6.61538046 26.722216 -2.84277344 38.50512822 -2.84277344 49.17700195 C21.57722656 49.17700195 45.99722656 49.17700195 71.15722656 49.17700195 C71.70368988 33.07338166 71.70368988 33.07338166 70.15722656 17.17700195 C46.39722656 17.17700195 22.63722656 17.17700195 -1.84277344 17.17700195 Z " fill="#FFFFFF" transform="translate(1541.8427734375,1280.822998046875)"/>
<path d="M0 0 C0.84926056 -0.00671722 1.69852112 -0.01343445 2.57351685 -0.02035522 C5.37996274 -0.03934721 8.18616963 -0.04326002 10.99267578 -0.04541016 C12.94556781 -0.05183724 14.89845887 -0.05856553 16.85134888 -0.06558228 C20.94519279 -0.07755803 25.0389523 -0.08126279 29.1328125 -0.08007812 C34.37413951 -0.07987492 39.61492442 -0.10717767 44.85612297 -0.14162254 C48.88992795 -0.16387908 52.92360221 -0.16791605 56.95746231 -0.16685867 C58.88953647 -0.16921648 60.82161414 -0.17805014 62.75362778 -0.19352341 C65.45853192 -0.21315818 68.16226377 -0.2073554 70.8671875 -0.1953125 C71.66219666 -0.20655151 72.45720581 -0.21779053 73.27630615 -0.22937012 C78.49504511 -0.17044008 81.39408299 0.8917718 85.56298828 4.29052734 C92.53402025 11.659904 93.71511219 20.25126294 93.73095703 29.99755859 C93.73594963 31.08480476 93.73594963 31.08480476 93.74104309 32.1940155 C93.74608228 33.72105276 93.74845235 35.24810092 93.74829102 36.77514648 C93.75047202 39.08580096 93.76864444 41.39597307 93.78759766 43.70654297 C93.8306707 54.64406717 93.63055011 64.3652064 86.56298828 73.29052734 C81.4169829 77.95783455 78.12680946 78.44493818 71.35302734 78.4675293 C70.50405884 78.47410049 69.65509033 78.48067169 68.78039551 78.48744202 C65.96313392 78.50719645 63.14592571 78.518843 60.32861328 78.52880859 C59.36707085 78.53288412 58.40552841 78.53695965 57.41484833 78.54115868 C52.32458205 78.56202958 47.2343428 78.5763263 42.14404297 78.58569336 C36.8869968 78.59675378 31.63037437 78.63114658 26.37347794 78.67086506 C22.33110774 78.69701764 18.28883865 78.70538404 14.2463913 78.70897484 C12.30872489 78.71384511 10.37106313 78.72547162 8.43347931 78.74401283 C5.71882133 78.76837306 3.00526128 78.7674449 0.29052734 78.76049805 C-0.5076239 78.77330811 -1.30577515 78.78611816 -2.12811279 78.79931641 C-7.35326704 78.75066749 -10.26997777 77.70926496 -14.43701172 74.29052734 C-16.30029297 72.07177734 -16.30029297 72.07177734 -17.74951172 69.79052734 C-18.24064453 69.03771484 -18.73177734 68.28490234 -19.23779297 67.50927734 C-21.12738748 64.01321975 -21.56219447 60.86599108 -21.59814453 56.92431641 C-21.60775208 56.06952698 -21.61735962 55.21473755 -21.6272583 54.33404541 C-21.63150818 53.4173407 -21.63575806 52.50063599 -21.64013672 51.55615234 C-21.64583679 50.60415955 -21.65153687 49.65216675 -21.65740967 48.67132568 C-21.66684826 46.6573599 -21.67338912 44.64337874 -21.67724609 42.62939453 C-21.68693232 39.56563981 -21.71795874 36.50256168 -21.74951172 33.43896484 C-21.75604429 31.47803131 -21.76129376 29.51709299 -21.76513672 27.55615234 C-21.77748352 26.64754456 -21.78983032 25.73893677 -21.80255127 24.80279541 C-21.77744601 17.5467022 -20.53491816 10.99855093 -15.49951172 5.41552734 C-15.01611328 4.86123047 -14.53271484 4.30693359 -14.03466797 3.73583984 C-9.78949872 -0.10453331 -5.50868663 -0.00624851 0 0 Z M-2.43701172 17.29052734 C-2.43701172 31.81052734 -2.43701172 46.33052734 -2.43701172 61.29052734 C22.64298828 61.29052734 47.72298828 61.29052734 73.56298828 61.29052734 C73.56298828 46.77052734 73.56298828 32.25052734 73.56298828 17.29052734 C48.48298828 17.29052734 23.40298828 17.29052734 -2.43701172 17.29052734 Z " fill="#FFFFFF" transform="translate(1280.43701171875,1280.70947265625)"/>
<path d="M0 0 C35.64 0 71.28 0 108 0 C108 5.61 108 11.22 108 17 C93.48 17 78.96 17 64 17 C64 37.13 64 57.26 64 78 C57.73 78 51.46 78 45 78 C45 57.87 45 37.74 45 17 C30.15 17 15.3 17 0 17 C0 11.39 0 5.78 0 0 Z " fill="#FFFFFF" transform="translate(638,1281)"/>
<path d="M0 0 C6.27 0 12.54 0 19 0 C19.33 20.13 19.66 40.26 20 61 C44.75 61 69.5 61 95 61 C95 66.61 95 72.22 95 78 C84.5425499 78.09043228 74.08536025 78.16379164 63.62760735 78.20724869 C58.77144701 78.22810775 53.91556848 78.2563947 49.05957031 78.30175781 C44.37168744 78.34527551 39.68407532 78.36914976 34.99600601 78.37950897 C33.20904402 78.38688971 31.42209656 78.40130271 29.63525009 78.42292023 C27.12874282 78.45203345 24.62334885 78.45595277 22.11669922 78.45410156 C21.38086105 78.46848267 20.64502289 78.48286377 19.8868866 78.49768066 C13.30223429 78.44519148 9.83470553 75.83470553 5.3125 71.3125 C-0.6518049 63.58561992 -0.40935584 54.56634773 -0.29296875 45.21484375 C-0.28872391 43.91801163 -0.28447906 42.6211795 -0.28010559 41.28504944 C-0.26874898 37.86713744 -0.23936355 34.44961883 -0.20599365 31.03186035 C-0.17509233 27.53236204 -0.16155777 24.03279906 -0.14648438 20.53320312 C-0.11448284 13.68862596 -0.06179233 6.84437247 0 0 Z " fill="#FFFFFF" transform="translate(1651,1281)"/>
<path d="M0 0 C6.27 0 12.54 0 19 0 C19.33 20.13 19.66 40.26 20 61 C44.75 61 69.5 61 95 61 C95 66.61 95 72.22 95 78 C84.5425499 78.09043228 74.08536025 78.16379164 63.62760735 78.20724869 C58.77144701 78.22810775 53.91556848 78.2563947 49.05957031 78.30175781 C44.37168744 78.34527551 39.68407532 78.36914976 34.99600601 78.37950897 C33.20904402 78.38688971 31.42209656 78.40130271 29.63525009 78.42292023 C27.12874282 78.45203345 24.62334885 78.45595277 22.11669922 78.45410156 C21.38086105 78.46848267 20.64502289 78.48286377 19.8868866 78.49768066 C13.30223429 78.44519148 9.83470553 75.83470553 5.3125 71.3125 C-0.6518049 63.58561992 -0.40935584 54.56634773 -0.29296875 45.21484375 C-0.28872391 43.91801163 -0.28447906 42.6211795 -0.28010559 41.28504944 C-0.26874898 37.86713744 -0.23936355 34.44961883 -0.20599365 31.03186035 C-0.17509233 27.53236204 -0.16155777 24.03279906 -0.14648438 20.53320312 C-0.11448284 13.68862596 -0.06179233 6.84437247 0 0 Z " fill="#FFFFFF" transform="translate(1156,1281)"/>
<path d="M0 0 C5 0 5 0 7.2890625 2.1328125 C8.05992188 3.12023438 8.83078125 4.10765625 9.625 5.125 C10.26187744 5.92719971 10.26187744 5.92719971 10.91162109 6.74560547 C12.28866021 8.48637181 13.64394437 10.2428575 15 12 C15.93589316 13.1887668 16.87339829 14.37626626 17.8125 15.5625 C19.60481001 17.82948011 21.38860569 20.10261576 23.1640625 22.3828125 C26.7431406 26.94786253 30.37625813 31.47032267 34 36 C34.33 24.12 34.66 12.24 35 0 C36.65 0 38.3 0 40 0 C40 15.84 40 31.68 40 48 C35 48 35 48 32.45703125 45.61328125 C31.55974377 44.52584906 30.67912161 43.42452544 29.8125 42.3125 C29.3383667 41.72815186 28.8642334 41.14380371 28.37573242 40.54174805 C26.89814185 38.70869126 25.445742 36.85824991 24 35 C23.33097656 34.14341797 23.33097656 34.14341797 22.6484375 33.26953125 C20.60732969 30.64786883 18.58625988 28.01335589 16.58203125 25.36328125 C13.12201307 20.85635893 9.54945957 16.43682446 6 12 C5.67 23.88 5.34 35.76 5 48 C3.35 48 1.7 48 0 48 C0 32.16 0 16.32 0 0 Z " fill="#FFFFFF" transform="translate(1153,1417)"/>
<path d="M0 0 C2.31 0 4.62 0 7 0 C9.6765712 5.70746066 12.3449613 11.41869382 15.0078125 17.13256836 C15.91382862 19.07419327 16.82168458 21.01496081 17.73144531 22.95483398 C19.04201109 25.75018189 20.34583606 28.54858982 21.6484375 31.34765625 C22.25635635 32.63870018 22.25635635 32.63870018 22.8765564 33.95582581 C25.02275384 38.58594964 26.75546924 43.04816986 28 48 C26.02 48 24.04 48 22 48 C21.15930585 46.39967863 20.32768495 44.79458829 19.5 43.1875 C19.0359375 42.29417969 18.571875 41.40085937 18.09375 40.48046875 C17 38 17 38 17 35 C8.42 35.33 -0.16 35.66 -9 36 C-10.98 39.96 -12.96 43.92 -15 48 C-16.98 48 -18.96 48 -21 48 C-19.4464322 42.95240231 -17.38065334 38.27150485 -15.15625 33.49609375 C-14.78649048 32.69518814 -14.41673096 31.89428253 -14.0357666 31.06910706 C-12.86015223 28.52384984 -11.68032618 25.98057516 -10.5 23.4375 C-9.32033697 20.89055502 -8.14159293 18.34319191 -6.9642334 15.79518127 C-6.23338286 14.21403721 -5.50110896 12.63355006 -4.76721191 11.05381775 C-3.07746774 7.40330239 -1.44396261 3.75699397 0 0 Z M3 7 C1.32724698 10.62222211 -0.33716251 14.2482166 -2 17.875 C-2.47695313 18.90753906 -2.95390625 19.94007812 -3.4453125 21.00390625 C-4.12207031 22.48310547 -4.12207031 22.48310547 -4.8125 23.9921875 C-5.23144531 24.90339355 -5.65039062 25.81459961 -6.08203125 26.75341797 C-7.12608298 28.90408622 -7.12608298 28.90408622 -7 31 C-0.07 31 6.86 31 14 31 C12.0094197 25.02825911 10.01941634 19.54912406 7.3125 13.9375 C6.99216797 13.26267578 6.67183594 12.58785156 6.34179688 11.89257812 C5.56580539 10.25952141 4.78358474 8.62942689 4 7 C3.67 7 3.34 7 3 7 Z " fill="#FFFFFF" transform="translate(896,1417)"/>
<path d="M0 0 C3.07666106 2.17176075 3.78029582 2.98254055 5.1875 6.25 C3.8675 7.24 2.5475 8.23 1.1875 9.25 C0.424375 8.610625 -0.33875 7.97125 -1.125 7.3125 C-6.21472217 3.40643415 -11.63191618 3.64207372 -17.8125 4.25 C-23.10385327 5.86193543 -26.91709431 8.46144444 -29.8125 13.25 C-32.16437374 19.18568135 -32.38077874 24.25210809 -30.05859375 30.171875 C-27.2983129 35.57694378 -23.48076005 38.36057998 -17.8125 40.25 C-16.06547481 40.36962115 -14.31357302 40.42527184 -12.5625 40.4375 C-11.19351563 40.45876953 -11.19351563 40.45876953 -9.796875 40.48046875 C-6.08243228 40.29362892 -6.08243228 40.29362892 0.1875 38.25 C0.1875 32.97 0.1875 27.69 0.1875 22.25 C1.8375 22.25 3.4875 22.25 5.1875 22.25 C5.1875 28.52 5.1875 34.79 5.1875 41.25 C-3.91965113 46.45408636 -12.23017068 47.94576311 -22.5546875 45.63671875 C-29.07770665 43.07491019 -33.85512906 38.1516491 -36.98046875 31.921875 C-38.99527593 25.45178998 -39.08778358 17.07530809 -36.3125 10.8125 C-28.91278229 -1.38916218 -13.10897857 -6.10950561 0 0 Z " fill="#FFFFFF" transform="translate(1005.8125,1418.75)"/>
<path d="M0 0 C10.89 0 21.78 0 33 0 C33 1.65 33 3.3 33 5 C23.76 5 14.52 5 5 5 C5 10.28 5 15.56 5 21 C13.25 21 21.5 21 30 21 C30 22.65 30 24.3 30 26 C21.75 26 13.5 26 5 26 C5 31.61 5 37.22 5 43 C14.57 43 24.14 43 34 43 C34 44.65 34 46.3 34 48 C22.78 48 11.56 48 0 48 C0 32.16 0 16.32 0 0 Z " fill="#FFFFFF" transform="translate(1067,1417)"/>
<path d="M0 0 C3.07666106 2.17176075 3.78029582 2.98254055 5.1875 6.25 C3.8675 7.24 2.5475 8.23 1.1875 9.25 C0.259375 8.610625 -0.66875 7.97125 -1.625 7.3125 C-6.94792814 3.86825238 -11.62122989 3.58959786 -17.8125 4.25 C-23.08522026 5.90277773 -26.91689364 8.46111257 -29.8125 13.25 C-32.16437374 19.18568135 -32.38077874 24.25210809 -30.05859375 30.171875 C-27.2983129 35.57694378 -23.48076005 38.36057998 -17.8125 40.25 C-10.39251838 40.9707307 -6.04718286 40.1943912 0.1875 36.25 C2.625 36.5 2.625 36.5 4.1875 37.25 C4.1875 38.57 4.1875 39.89 4.1875 41.25 C-3.33571505 47.10138948 -10.70628298 46.76398243 -19.8125 46.25 C-25.88333628 45.10713099 -30.70733955 40.66027373 -34.8125 36.25 C-38.96301102 29.89453001 -38.55603963 22.63411767 -37.8125 15.25 C-36.13182322 8.65413643 -31.40091307 3.92920434 -25.8125 0.25 C-18.09769455 -2.98246038 -7.69938483 -3.58833715 0 0 Z " fill="#FFFFFF" transform="translate(1283.8125,1418.75)"/>
<path d="M0 0 C3.11328125 -0.5703125 3.11328125 -0.5703125 7 0 C9.6225546 2.69681471 11.34791976 5.86207743 13.1875 9.125 C14.20153703 10.83610696 15.21585388 12.54704812 16.23046875 14.2578125 C16.70145996 15.0715332 17.17245117 15.88525391 17.65771484 16.72363281 C19.33227698 19.56350501 21.13383112 22.28314316 23 25 C23.99580078 23.2984375 23.99580078 23.2984375 25.01171875 21.5625 C25.90358603 20.04163159 26.7955165 18.52080024 27.6875 17 C28.34008789 15.88431641 28.34008789 15.88431641 29.00585938 14.74609375 C29.88774115 13.2436285 30.77829022 11.74621842 31.67724609 10.25390625 C32.56275354 8.74504602 33.40452044 7.20969757 34.20166016 5.65234375 C35.34152364 3.535921 36.34350363 1.74398635 38 0 C41.8125 -0.5 41.8125 -0.5 45 0 C39.91276288 9.09450211 34.57269827 17.98897936 29.00390625 26.796875 C26.11116072 31.42075674 25.7199404 34.76326266 25.4375 40.125 C25.39431641 40.87910156 25.35113281 41.63320312 25.30664062 42.41015625 C25.2005168 44.27321888 25.09974999 46.13658524 25 48 C23.35 48 21.7 48 20 48 C20.04382812 47.04222656 20.08765625 46.08445312 20.1328125 45.09765625 C20.27071619 32.75840988 15.74221132 25.02578652 9 15 C7.68517056 12.96557438 6.38210096 10.92398456 5.08007812 8.88134766 C3.93876964 7.09955608 2.77895673 5.33098266 1.6171875 3.5625 C0 1 0 1 0 0 Z " fill="#FFFFFF" transform="translate(1331,1417)"/>
</svg>
